<?xml version="1.0" standalone="no"?>
<!DOCTYPE svg PUBLIC "-//W3C//DTD SVG 20010904//EN"
 "http://www.w3.org/TR/2001/REC-SVG-20010904/DTD/svg10.dtd">
<svg version="1.0" xmlns="http://www.w3.org/2000/svg"
 width="522.000000pt" height="309.000000pt" viewBox="0 0 522.000000 309.000000"
 preserveAspectRatio="xMidYMid meet">

<g transform="translate(0.000000,309.000000) scale(0.100000,-0.100000)"
fill="#000000" stroke="none">
<path d="M1584 2811 c-69 -31 -101 -81 -176 -277 -38 -98 -109 -280 -157 -404
-49 -124 -122 -308 -161 -410 -40 -102 -124 -313 -188 -470 -63 -157 -116
-290 -119 -296 -3 -8 24 -13 84 -16 131 -7 238 -64 299 -159 13 -22 28 -39 33
-39 9 0 26 39 127 290 30 74 59 144 64 155 5 11 53 128 105 260 53 132 101
251 107 265 5 14 35 87 67 164 31 76 61 138 66 139 10 0 55 -73 350 -573 92
-157 179 -300 193 -318 42 -55 105 -86 176 -86 104 0 174 53 262 200 55 92
227 382 409 689 81 138 170 287 197 333 l49 82 157 2 c308 5 381 -4 510 -63
189 -85 329 -246 405 -463 31 -89 32 -95 32 -266 0 -192 -10 -251 -65 -368
-76 -163 -215 -308 -363 -376 -119 -55 -142 -59 -369 -64 l-218 -4 0 678 0
678 -30 -47 c-16 -26 -30 -50 -30 -52 0 -2 -42 -73 -93 -157 -52 -84 -142
-234 -200 -334 l-107 -180 0 -532 0 -532 380 0 c208 0 426 5 482 11 266 28
493 131 686 314 165 155 288 357 348 570 41 146 48 200 48 395 1 169 -2 209
-22 299 -58 258 -165 457 -341 632 -170 170 -348 266 -598 325 -87 20 -763 33
-829 15 -96 -26 -105 -38 -354 -471 -279 -485 -341 -590 -349 -590 -9 0 -100
153 -296 495 -302 527 -312 542 -395 565 -55 15 -131 11 -176 -9z"/>
<path d="M781 800 c-136 -28 -225 -143 -225 -290 0 -126 58 -219 169 -272 181
-85 386 45 402 254 15 191 -160 346 -346 308z"/>
</g>
</svg>
